<svg width="16" height="16" viewBox="0 0 16 16" fill="none" xmlns="http://www.w3.org/2000/svg">
<path d="M6.2638 2.34449e-08C5.26314 0.000108371 4.27706 0.23992 3.38812 0.69936C2.49917 1.1588 1.73322 1.8245 1.1544 2.64073C0.575572 3.45696 0.200709 4.39997 0.0611901 5.39082C-0.0783292 6.38166 0.0215552 7.39152 0.352482 8.33584C0.683408 9.28016 1.23575 10.1315 1.96326 10.8185C2.69077 11.5055 3.57229 12.0083 4.53402 12.2847C5.49575 12.5611 6.5097 12.6031 7.491 12.4072C8.47229 12.2113 9.39238 11.7832 10.1742 11.1587L14.8204 15.8046C14.9517 15.9314 15.1275 16.0016 15.31 16C15.4925 15.9984 15.6671 15.9252 15.7961 15.7961C15.9252 15.6671 15.9984 15.4925 16 15.31C16.0016 15.1275 15.9314 14.9517 15.8046 14.8204L11.1585 10.1745C11.8949 9.25285 12.3561 8.14201 12.489 6.96983C12.6218 5.79764 12.421 4.61176 11.9096 3.54868C11.3982 2.48559 10.597 1.58852 9.59815 0.960717C8.59934 0.332914 7.44355 -0.000102021 6.2638 2.34449e-08ZM1.39143 6.26422C1.39143 4.97204 1.90477 3.73278 2.81851 2.81907C3.73226 1.90536 4.97157 1.39205 6.2638 1.39205C7.55604 1.39205 8.79535 1.90536 9.70909 2.81907C10.6228 3.73278 11.1362 4.97204 11.1362 6.26422C11.1362 7.5564 10.6228 8.79565 9.70909 9.70936C8.79535 10.6231 7.55604 11.1364 6.2638 11.1364C4.97157 11.1364 3.73226 10.6231 2.81851 9.70936C1.90477 8.79565 1.39143 7.5564 1.39143 6.26422Z" fill="black"/>
</svg>
